<?xml version="1.0" encoding="utf-8"?>
<!DOCTYPE svg PUBLIC "-//W3C//DTD SVG 1.1//EN" "http://www.w3.org/Graphics/SVG/1.1/DTD/svg11.dtd">
<svg version="1.1" xmlns="http://www.w3.org/2000/svg" xmlns:xlink="http://www.w3.org/1999/xlink" x="0px" y="0px" viewBox="0 0 1000 1000" xml:space="preserve">
<g><g transform="translate(0.000000,512.000000) scale(0.100000,-0.100000)"><path d="M209.3,4913.6l-99.7-99.7L2177,2746.4C3312.3,1609.2,4363.3,552.5,4509,399L4775.6,121L2437.8-2216.8L100-4554.7L211.2-4664l109.3-111.2l2339.7,2339.7L5000-95.8l2345.5-2345.5L9689-4784.8l105.5,105.5c55.6,57.5,99.7,109.3,94,113.2c-3.8,5.7-836.2,840-1848.8,1856.4C7027.1-1693.3,5978.1-640.4,5709.6-368.1l-489,492.9l2339.7,2339.7L9900,4804.2l-111.2,109.3l-109.3,111.2L7339.7,2685.1L5000,345.3L2664.1,2681.2c-1283,1283-2337.8,2334-2343.6,2334C314.8,5015.2,264.9,4969.2,209.3,4913.6z"/></g></g>
</svg>